<svg width="23" height="25" viewBox="0 0 23 25" fill="none" xmlns="http://www.w3.org/2000/svg">
<path d="M21.8722 17.4594L17.0597 15.2094C16.8541 15.1138 16.6257 15.0937 16.4087 15.152C16.1917 15.2103 15.9979 15.344 15.8566 15.5328L13.7254 18.3734C10.3806 16.653 7.68876 13.7165 6.11172 10.0677L8.71562 7.74266C8.88908 7.58876 9.01185 7.3774 9.06535 7.14057C9.11884 6.90375 9.10015 6.65436 9.01211 6.43016L6.94961 1.18016C6.85298 0.938473 6.68207 0.741147 6.46636 0.622203C6.25065 0.503259 6.00366 0.470153 5.76797 0.528594L1.29922 1.65359C1.07199 1.71084 0.86925 1.85041 0.724097 2.04954C0.578944 2.24867 0.499948 2.49559 0.5 2.75C0.5 14.7734 9.4332 24.5 20.4375 24.5C20.6708 24.5002 20.8972 24.414 21.0799 24.2557C21.2625 24.0973 21.3905 23.8761 21.443 23.6281L22.4742 18.7531C22.5274 18.4948 22.4965 18.2242 22.3866 17.9881C22.2767 17.752 22.0948 17.565 21.8722 17.4594V17.4594Z" fill="black"/>
</svg>
